<svg width="55" height="37" viewBox="0 0 55 37" fill="none" xmlns="http://www.w3.org/2000/svg">
<path d="M22.9206 19.8917L6.60923 36.257C6.21261 36.6443 5.68088 36.861 5.12727 36.861C4.57366 36.861 4.04193 36.6443 3.64532 36.257L0.681408 33.2851C0.29517 32.8874 0.0790356 32.3543 0.0790356 31.7992C0.0790356 31.2441 0.29517 30.7109 0.681408 30.3132L10.9168 19.8917C11.3054 19.4952 11.5231 18.9616 11.5231 18.4058C11.5231 17.8499 11.3054 17.3163 10.9168 16.9198L0.602372 6.54782C0.216134 6.15014 0 5.61697 0 5.06187C0 4.50677 0.216134 3.9736 0.602372 3.57591L3.56628 0.604002C3.9629 0.216721 4.49463 0 5.04824 0C5.60185 0 6.13358 0.216721 6.53019 0.604002L22.9206 16.8901C23.1175 17.087 23.2737 17.3209 23.3802 17.5785C23.4868 17.836 23.5416 18.1121 23.5416 18.3909C23.5416 18.6697 23.4868 18.9458 23.3802 19.2033C23.2737 19.4609 23.1175 19.6948 22.9206 19.8917Z" fill="#FA865F"/>
<path d="M55 34.8999C54.9922 35.4596 54.765 35.9937 54.3675 36.3867C53.97 36.7797 53.4341 37.0001 52.8759 37H27.5838C27.0256 37.0001 26.4897 36.7797 26.0922 36.3867C25.6947 35.9937 25.4675 35.4596 25.4597 34.8999V30.65C25.4597 30.3703 25.5146 30.0934 25.6214 29.835C25.7281 29.5766 25.8846 29.3418 26.0818 29.144C26.2791 28.9462 26.5133 28.7893 26.771 28.6823C27.0287 28.5752 27.3049 28.5201 27.5838 28.5201H52.8759C53.1548 28.5201 53.431 28.5752 53.6887 28.6823C53.9464 28.7893 54.1806 28.9462 54.3779 29.144C54.5751 29.3418 54.7316 29.5766 54.8383 29.835C54.9451 30.0934 55 30.3703 55 30.65V34.8999Z" fill="#FA865F"/>
</svg>